<mxfile host="app.diagrams.net" agent="Mozilla/5.0 (Windows NT 10.0; Win64; x64) AppleWebKit/537.36 (KHTML, like Gecko) Chrome/141.0.0.0 Safari/537.36 Edg/141.0.0.0" version="28.2.7">
  <diagram id="C5RBs43oDa-KdzZeNtuy" name="Page-1">
    <mxGraphModel dx="750" dy="833" grid="1" gridSize="10" guides="1" tooltips="1" connect="1" arrows="1" fold="1" page="1" pageScale="1" pageWidth="827" pageHeight="1169" math="0" shadow="0">
      <root>
        <mxCell id="WIyWlLk6GJQsqaUBKTNV-0" />
        <mxCell id="WIyWlLk6GJQsqaUBKTNV-1" parent="WIyWlLk6GJQsqaUBKTNV-0" />
        <mxCell id="1E7eBnh2MoHhItpFgBv9-29" value="&lt;font style=&quot;font-size: 14px;&quot;&gt;&amp;nbsp;Supuesto 6:&lt;/font&gt;&lt;div&gt;&lt;font style=&quot;font-size: 14px;&quot;&gt;&amp;nbsp;&lt;span style=&quot;background-color: transparent; color: light-dark(rgb(0, 0, 0), rgb(255, 255, 255));&quot;&gt;Se aceptan pagos mediante&amp;nbsp;&lt;/span&gt;&lt;br&gt;&lt;/font&gt;&lt;/div&gt;&lt;div&gt;&lt;font style=&quot;font-size: 14px;&quot;&gt;webpay y&lt;/font&gt;&amp;nbsp;&lt;font style=&quot;font-size: 14px;&quot;&gt;tarjetas digitales.&lt;/font&gt;&lt;/div&gt;" style="html=1;whiteSpace=wrap;fillColor=#dae8fc;strokeColor=#6c8ebf;" vertex="1" parent="WIyWlLk6GJQsqaUBKTNV-1">
          <mxGeometry x="1750" y="1200" width="210" height="75" as="geometry" />
        </mxCell>
        <mxCell id="1E7eBnh2MoHhItpFgBv9-113" value="PagoTarjetaDigital&lt;Usuario&gt;" style="swimlane;fontStyle=2;align=center;verticalAlign=top;childLayout=stackLayout;horizontal=1;startSize=26;horizontalStack=0;resizeParent=1;resizeLast=0;collapsible=1;marginBottom=0;rounded=0;shadow=0;strokeWidth=1;" vertex="1" parent="WIyWlLk6GJQsqaUBKTNV-1">
          <mxGeometry x="2200" y="923" width="260" height="157" as="geometry">
            <mxRectangle x="230" y="140" width="160" height="26" as="alternateBounds" />
          </mxGeometry>
        </mxCell>
        <mxCell id="1E7eBnh2MoHhItpFgBv9-114" value="+ idCliente: str" style="text;strokeColor=none;fillColor=none;align=left;verticalAlign=top;spacingLeft=4;spacingRight=4;overflow=hidden;rotatable=0;points=[[0,0.5],[1,0.5]];portConstraint=eastwest;whiteSpace=wrap;html=1;" vertex="1" parent="1E7eBnh2MoHhItpFgBv9-113">
          <mxGeometry y="26" width="260" height="26" as="geometry" />
        </mxCell>
        <mxCell id="1E7eBnh2MoHhItpFgBv9-115" value="+ monto: float" style="text;strokeColor=none;fillColor=none;align=left;verticalAlign=top;spacingLeft=4;spacingRight=4;overflow=hidden;rotatable=0;points=[[0,0.5],[1,0.5]];portConstraint=eastwest;whiteSpace=wrap;html=1;" vertex="1" parent="1E7eBnh2MoHhItpFgBv9-113">
          <mxGeometry y="52" width="260" height="28" as="geometry" />
        </mxCell>
        <mxCell id="1E7eBnh2MoHhItpFgBv9-116" value="+ idDispositivo: str" style="text;strokeColor=none;fillColor=none;align=left;verticalAlign=top;spacingLeft=4;spacingRight=4;overflow=hidden;rotatable=0;points=[[0,0.5],[1,0.5]];portConstraint=eastwest;whiteSpace=wrap;html=1;" vertex="1" parent="1E7eBnh2MoHhItpFgBv9-113">
          <mxGeometry y="80" width="260" height="26" as="geometry" />
        </mxCell>
        <mxCell id="1E7eBnh2MoHhItpFgBv9-117" value="" style="line;html=1;strokeWidth=1;align=left;verticalAlign=middle;spacingTop=-1;spacingLeft=3;spacingRight=3;rotatable=0;labelPosition=right;points=[];portConstraint=eastwest;" vertex="1" parent="1E7eBnh2MoHhItpFgBv9-113">
          <mxGeometry y="106" width="260" height="8" as="geometry" />
        </mxCell>
        <mxCell id="1E7eBnh2MoHhItpFgBv9-118" value="+ pagoCel(idCliente, monto, idDispositivo): Response" style="text;strokeColor=none;fillColor=none;align=left;verticalAlign=top;spacingLeft=4;spacingRight=4;overflow=hidden;rotatable=0;points=[[0,0.5],[1,0.5]];portConstraint=eastwest;whiteSpace=wrap;html=1;" vertex="1" parent="1E7eBnh2MoHhItpFgBv9-113">
          <mxGeometry y="114" width="260" height="36" as="geometry" />
        </mxCell>
        <mxCell id="1E7eBnh2MoHhItpFgBv9-119" value="ICRUD&amp;lt;E&amp;gt;" style="swimlane;fontStyle=0;childLayout=stackLayout;horizontal=1;startSize=26;fillColor=none;horizontalStack=0;resizeParent=1;resizeParentMax=0;resizeLast=0;collapsible=1;marginBottom=0;whiteSpace=wrap;html=1;" vertex="1" parent="WIyWlLk6GJQsqaUBKTNV-1">
          <mxGeometry x="1380" y="770" width="220" height="130" as="geometry" />
        </mxCell>
        <mxCell id="1E7eBnh2MoHhItpFgBv9-120" value="add(input): Response" style="label;fontStyle=0;strokeColor=none;fillColor=none;align=left;verticalAlign=top;overflow=hidden;spacingLeft=28;spacingRight=4;rotatable=0;points=[[0,0.5],[1,0.5]];portConstraint=eastwest;imageWidth=16;imageHeight=16;whiteSpace=wrap;html=1;image=img/clipart/Gear_128x128.png" vertex="1" parent="1E7eBnh2MoHhItpFgBv9-119">
          <mxGeometry y="26" width="220" height="26" as="geometry" />
        </mxCell>
        <mxCell id="1E7eBnh2MoHhItpFgBv9-121" value="update(key, input): Response" style="label;fontStyle=0;strokeColor=none;fillColor=none;align=left;verticalAlign=top;overflow=hidden;spacingLeft=28;spacingRight=4;rotatable=0;points=[[0,0.5],[1,0.5]];portConstraint=eastwest;imageWidth=16;imageHeight=16;whiteSpace=wrap;html=1;image=img/clipart/Gear_128x128.png" vertex="1" parent="1E7eBnh2MoHhItpFgBv9-119">
          <mxGeometry y="52" width="220" height="26" as="geometry" />
        </mxCell>
        <mxCell id="1E7eBnh2MoHhItpFgBv9-122" value="delete(key): Response" style="label;fontStyle=0;strokeColor=none;fillColor=none;align=left;verticalAlign=top;overflow=hidden;spacingLeft=28;spacingRight=4;rotatable=0;points=[[0,0.5],[1,0.5]];portConstraint=eastwest;imageWidth=16;imageHeight=16;whiteSpace=wrap;html=1;image=img/clipart/Gear_128x128.png" vertex="1" parent="1E7eBnh2MoHhItpFgBv9-119">
          <mxGeometry y="78" width="220" height="26" as="geometry" />
        </mxCell>
        <mxCell id="1E7eBnh2MoHhItpFgBv9-123" value="query(key): Response" style="label;fontStyle=0;strokeColor=none;fillColor=none;align=left;verticalAlign=top;overflow=hidden;spacingLeft=28;spacingRight=4;rotatable=0;points=[[0,0.5],[1,0.5]];portConstraint=eastwest;imageWidth=16;imageHeight=16;whiteSpace=wrap;html=1;image=img/clipart/Gear_128x128.png" vertex="1" parent="1E7eBnh2MoHhItpFgBv9-119">
          <mxGeometry y="104" width="220" height="26" as="geometry" />
        </mxCell>
        <mxCell id="1E7eBnh2MoHhItpFgBv9-124" value="«interface»&lt;br&gt;&lt;b&gt;input&lt;/b&gt;" style="html=1;whiteSpace=wrap;" vertex="1" parent="WIyWlLk6GJQsqaUBKTNV-1">
          <mxGeometry x="1350" y="950" width="110" height="50" as="geometry" />
        </mxCell>
        <mxCell id="1E7eBnh2MoHhItpFgBv9-125" value="Use" style="endArrow=open;endSize=12;dashed=1;html=1;rounded=0;exitX=0.494;exitY=1.108;exitDx=0;exitDy=0;exitPerimeter=0;" edge="1" parent="WIyWlLk6GJQsqaUBKTNV-1" source="1E7eBnh2MoHhItpFgBv9-123" target="1E7eBnh2MoHhItpFgBv9-124">
          <mxGeometry width="160" relative="1" as="geometry">
            <mxPoint x="1530" y="1000" as="sourcePoint" />
            <mxPoint x="1450" y="990" as="targetPoint" />
          </mxGeometry>
        </mxCell>
        <mxCell id="1E7eBnh2MoHhItpFgBv9-126" value="Usuarioinput" style="swimlane;fontStyle=2;align=center;verticalAlign=top;childLayout=stackLayout;horizontal=1;startSize=26;horizontalStack=0;resizeParent=1;resizeLast=0;collapsible=1;marginBottom=0;rounded=0;shadow=0;strokeWidth=1;" vertex="1" parent="WIyWlLk6GJQsqaUBKTNV-1">
          <mxGeometry x="1340" y="1059" width="130" height="80" as="geometry">
            <mxRectangle x="230" y="140" width="160" height="26" as="alternateBounds" />
          </mxGeometry>
        </mxCell>
        <mxCell id="1E7eBnh2MoHhItpFgBv9-127" value="+ email: str" style="text;strokeColor=none;fillColor=none;align=left;verticalAlign=top;spacingLeft=4;spacingRight=4;overflow=hidden;rotatable=0;points=[[0,0.5],[1,0.5]];portConstraint=eastwest;whiteSpace=wrap;html=1;" vertex="1" parent="1E7eBnh2MoHhItpFgBv9-126">
          <mxGeometry y="26" width="130" height="26" as="geometry" />
        </mxCell>
        <mxCell id="1E7eBnh2MoHhItpFgBv9-128" value="+ pass: str" style="text;strokeColor=none;fillColor=none;align=left;verticalAlign=top;spacingLeft=4;spacingRight=4;overflow=hidden;rotatable=0;points=[[0,0.5],[1,0.5]];portConstraint=eastwest;whiteSpace=wrap;html=1;" vertex="1" parent="1E7eBnh2MoHhItpFgBv9-126">
          <mxGeometry y="52" width="130" height="20" as="geometry" />
        </mxCell>
        <mxCell id="1E7eBnh2MoHhItpFgBv9-129" value="Extends" style="endArrow=block;endSize=16;endFill=0;html=1;rounded=0;exitX=0.5;exitY=0;exitDx=0;exitDy=0;entryX=0.5;entryY=1;entryDx=0;entryDy=0;" edge="1" parent="WIyWlLk6GJQsqaUBKTNV-1" source="1E7eBnh2MoHhItpFgBv9-126" target="1E7eBnh2MoHhItpFgBv9-124">
          <mxGeometry width="160" relative="1" as="geometry">
            <mxPoint x="1580" y="1000" as="sourcePoint" />
            <mxPoint x="1740" y="1000" as="targetPoint" />
          </mxGeometry>
        </mxCell>
        <mxCell id="1E7eBnh2MoHhItpFgBv9-130" value="Response" style="swimlane;fontStyle=2;align=center;verticalAlign=top;childLayout=stackLayout;horizontal=1;startSize=26;horizontalStack=0;resizeParent=1;resizeLast=0;collapsible=1;marginBottom=0;rounded=0;shadow=0;strokeWidth=1;" vertex="1" parent="WIyWlLk6GJQsqaUBKTNV-1">
          <mxGeometry x="1510" y="950" width="130" height="78" as="geometry">
            <mxRectangle x="230" y="140" width="160" height="26" as="alternateBounds" />
          </mxGeometry>
        </mxCell>
        <mxCell id="1E7eBnh2MoHhItpFgBv9-131" value="+ status: HtttpCde" style="text;strokeColor=none;fillColor=none;align=left;verticalAlign=top;spacingLeft=4;spacingRight=4;overflow=hidden;rotatable=0;points=[[0,0.5],[1,0.5]];portConstraint=eastwest;whiteSpace=wrap;html=1;" vertex="1" parent="1E7eBnh2MoHhItpFgBv9-130">
          <mxGeometry y="26" width="130" height="26" as="geometry" />
        </mxCell>
        <mxCell id="1E7eBnh2MoHhItpFgBv9-132" value="+ body: Object" style="text;strokeColor=none;fillColor=none;align=left;verticalAlign=top;spacingLeft=4;spacingRight=4;overflow=hidden;rotatable=0;points=[[0,0.5],[1,0.5]];portConstraint=eastwest;whiteSpace=wrap;html=1;" vertex="1" parent="1E7eBnh2MoHhItpFgBv9-130">
          <mxGeometry y="52" width="130" height="26" as="geometry" />
        </mxCell>
        <mxCell id="1E7eBnh2MoHhItpFgBv9-133" value="Use" style="endArrow=open;endSize=12;dashed=1;html=1;rounded=0;entryX=0.5;entryY=0;entryDx=0;entryDy=0;exitX=0.487;exitY=1.077;exitDx=0;exitDy=0;exitPerimeter=0;" edge="1" parent="WIyWlLk6GJQsqaUBKTNV-1" source="1E7eBnh2MoHhItpFgBv9-123" target="1E7eBnh2MoHhItpFgBv9-130">
          <mxGeometry width="160" relative="1" as="geometry">
            <mxPoint x="1490" y="910" as="sourcePoint" />
            <mxPoint x="1470" y="957" as="targetPoint" />
          </mxGeometry>
        </mxCell>
        <mxCell id="1E7eBnh2MoHhItpFgBv9-134" value="HttpCode" style="html=1;whiteSpace=wrap;" vertex="1" parent="WIyWlLk6GJQsqaUBKTNV-1">
          <mxGeometry x="1520" y="1074" width="110" height="50" as="geometry" />
        </mxCell>
        <mxCell id="1E7eBnh2MoHhItpFgBv9-135" value="Use" style="endArrow=open;endSize=12;dashed=1;html=1;rounded=0;exitX=0.477;exitY=0.985;exitDx=0;exitDy=0;exitPerimeter=0;" edge="1" parent="WIyWlLk6GJQsqaUBKTNV-1" source="1E7eBnh2MoHhItpFgBv9-132" target="1E7eBnh2MoHhItpFgBv9-134">
          <mxGeometry width="160" relative="1" as="geometry">
            <mxPoint x="1805" y="1030" as="sourcePoint" />
            <mxPoint x="1750" y="1077" as="targetPoint" />
          </mxGeometry>
        </mxCell>
        <mxCell id="1E7eBnh2MoHhItpFgBv9-136" value="«interface»&lt;br&gt;&lt;b&gt;ICRUD&lt;/b&gt;" style="html=1;whiteSpace=wrap;" vertex="1" parent="WIyWlLk6GJQsqaUBKTNV-1">
          <mxGeometry x="2100" y="780" width="110" height="50" as="geometry" />
        </mxCell>
        <mxCell id="1E7eBnh2MoHhItpFgBv9-137" value="Extends" style="endArrow=block;endSize=16;endFill=0;html=1;rounded=0;exitX=0.5;exitY=0;exitDx=0;exitDy=0;entryX=0.5;entryY=1;entryDx=0;entryDy=0;" edge="1" parent="WIyWlLk6GJQsqaUBKTNV-1" source="1E7eBnh2MoHhItpFgBv9-113" target="1E7eBnh2MoHhItpFgBv9-136">
          <mxGeometry width="160" relative="1" as="geometry">
            <mxPoint x="1800" y="1040" as="sourcePoint" />
            <mxPoint x="1800" y="980" as="targetPoint" />
            <Array as="points" />
          </mxGeometry>
        </mxCell>
        <mxCell id="1E7eBnh2MoHhItpFgBv9-138" value="Use" style="endArrow=open;endSize=12;dashed=1;html=1;rounded=0;entryX=1;entryY=0.5;entryDx=0;entryDy=0;" edge="1" parent="WIyWlLk6GJQsqaUBKTNV-1" target="1E7eBnh2MoHhItpFgBv9-131">
          <mxGeometry width="160" relative="1" as="geometry">
            <mxPoint x="2336" y="1080" as="sourcePoint" />
            <mxPoint x="1798" y="1078" as="targetPoint" />
            <Array as="points">
              <mxPoint x="2336" y="1150" />
              <mxPoint x="1710" y="1150" />
              <mxPoint x="1710" y="989" />
            </Array>
          </mxGeometry>
        </mxCell>
        <mxCell id="1E7eBnh2MoHhItpFgBv9-139" value="200: OK&lt;div&gt;400: Not Allowed&lt;/div&gt;&lt;div&gt;&lt;div&gt;404: Not Found&amp;nbsp;&lt;/div&gt;&lt;/div&gt;" style="html=1;whiteSpace=wrap;dashed=1;" vertex="1" parent="WIyWlLk6GJQsqaUBKTNV-1">
          <mxGeometry x="1500" y="1139" width="140" height="72" as="geometry" />
        </mxCell>
        <mxCell id="1E7eBnh2MoHhItpFgBv9-140" value="Logger&lt;A&gt;" style="swimlane;fontStyle=2;align=center;verticalAlign=top;childLayout=stackLayout;horizontal=1;startSize=26;horizontalStack=0;resizeParent=1;resizeLast=0;collapsible=1;marginBottom=0;rounded=0;shadow=0;strokeWidth=1;" vertex="1" parent="WIyWlLk6GJQsqaUBKTNV-1">
          <mxGeometry x="1677" y="770" width="130" height="104" as="geometry">
            <mxRectangle x="230" y="140" width="160" height="26" as="alternateBounds" />
          </mxGeometry>
        </mxCell>
        <mxCell id="1E7eBnh2MoHhItpFgBv9-141" value="+ fecha: timestamp" style="text;strokeColor=none;fillColor=none;align=left;verticalAlign=top;spacingLeft=4;spacingRight=4;overflow=hidden;rotatable=0;points=[[0,0.5],[1,0.5]];portConstraint=eastwest;whiteSpace=wrap;html=1;" vertex="1" parent="1E7eBnh2MoHhItpFgBv9-140">
          <mxGeometry y="26" width="130" height="26" as="geometry" />
        </mxCell>
        <mxCell id="1E7eBnh2MoHhItpFgBv9-142" value="+ entity: A" style="text;strokeColor=none;fillColor=none;align=left;verticalAlign=top;spacingLeft=4;spacingRight=4;overflow=hidden;rotatable=0;points=[[0,0.5],[1,0.5]];portConstraint=eastwest;whiteSpace=wrap;html=1;" vertex="1" parent="1E7eBnh2MoHhItpFgBv9-140">
          <mxGeometry y="52" width="130" height="26" as="geometry" />
        </mxCell>
        <mxCell id="1E7eBnh2MoHhItpFgBv9-143" value="+ content: Object" style="text;strokeColor=none;fillColor=none;align=left;verticalAlign=top;spacingLeft=4;spacingRight=4;overflow=hidden;rotatable=0;points=[[0,0.5],[1,0.5]];portConstraint=eastwest;whiteSpace=wrap;html=1;" vertex="1" parent="1E7eBnh2MoHhItpFgBv9-140">
          <mxGeometry y="78" width="130" height="26" as="geometry" />
        </mxCell>
        <mxCell id="1E7eBnh2MoHhItpFgBv9-144" value="Extends" style="endArrow=block;endSize=16;endFill=0;html=1;rounded=0;exitX=0;exitY=0.5;exitDx=0;exitDy=0;" edge="1" parent="WIyWlLk6GJQsqaUBKTNV-1" source="1E7eBnh2MoHhItpFgBv9-142">
          <mxGeometry width="160" relative="1" as="geometry">
            <mxPoint x="1620" y="1014" as="sourcePoint" />
            <mxPoint x="1600" y="835" as="targetPoint" />
          </mxGeometry>
        </mxCell>
        <mxCell id="1E7eBnh2MoHhItpFgBv9-145" value="PagoWebpay&lt;Usuario&gt;" style="swimlane;fontStyle=2;align=center;verticalAlign=top;childLayout=stackLayout;horizontal=1;startSize=26;horizontalStack=0;resizeParent=1;resizeLast=0;collapsible=1;marginBottom=0;rounded=0;shadow=0;strokeWidth=1;" vertex="1" parent="WIyWlLk6GJQsqaUBKTNV-1">
          <mxGeometry x="1760" y="923" width="390" height="190" as="geometry">
            <mxRectangle x="230" y="140" width="160" height="26" as="alternateBounds" />
          </mxGeometry>
        </mxCell>
        <mxCell id="1E7eBnh2MoHhItpFgBv9-146" value="+ idCliente: str" style="text;strokeColor=none;fillColor=none;align=left;verticalAlign=top;spacingLeft=4;spacingRight=4;overflow=hidden;rotatable=0;points=[[0,0.5],[1,0.5]];portConstraint=eastwest;whiteSpace=wrap;html=1;" vertex="1" parent="1E7eBnh2MoHhItpFgBv9-145">
          <mxGeometry y="26" width="390" height="26" as="geometry" />
        </mxCell>
        <mxCell id="1E7eBnh2MoHhItpFgBv9-147" value="+ monto: float" style="text;strokeColor=none;fillColor=none;align=left;verticalAlign=top;spacingLeft=4;spacingRight=4;overflow=hidden;rotatable=0;points=[[0,0.5],[1,0.5]];portConstraint=eastwest;whiteSpace=wrap;html=1;" vertex="1" parent="1E7eBnh2MoHhItpFgBv9-145">
          <mxGeometry y="52" width="390" height="28" as="geometry" />
        </mxCell>
        <mxCell id="1E7eBnh2MoHhItpFgBv9-148" value="+ numTarjeta: str" style="text;strokeColor=none;fillColor=none;align=left;verticalAlign=top;spacingLeft=4;spacingRight=4;overflow=hidden;rotatable=0;points=[[0,0.5],[1,0.5]];portConstraint=eastwest;whiteSpace=wrap;html=1;" vertex="1" parent="1E7eBnh2MoHhItpFgBv9-145">
          <mxGeometry y="80" width="390" height="26" as="geometry" />
        </mxCell>
        <mxCell id="1E7eBnh2MoHhItpFgBv9-149" value="+ vencimiento: str" style="text;strokeColor=none;fillColor=none;align=left;verticalAlign=top;spacingLeft=4;spacingRight=4;overflow=hidden;rotatable=0;points=[[0,0.5],[1,0.5]];portConstraint=eastwest;whiteSpace=wrap;html=1;" vertex="1" parent="1E7eBnh2MoHhItpFgBv9-145">
          <mxGeometry y="106" width="390" height="26" as="geometry" />
        </mxCell>
        <mxCell id="1E7eBnh2MoHhItpFgBv9-150" value="+ cvv: str" style="text;strokeColor=none;fillColor=none;align=left;verticalAlign=top;spacingLeft=4;spacingRight=4;overflow=hidden;rotatable=0;points=[[0,0.5],[1,0.5]];portConstraint=eastwest;whiteSpace=wrap;html=1;" vertex="1" parent="1E7eBnh2MoHhItpFgBv9-145">
          <mxGeometry y="132" width="390" height="26" as="geometry" />
        </mxCell>
        <mxCell id="1E7eBnh2MoHhItpFgBv9-151" value="" style="line;html=1;strokeWidth=1;align=left;verticalAlign=middle;spacingTop=-1;spacingLeft=3;spacingRight=3;rotatable=0;labelPosition=right;points=[];portConstraint=eastwest;" vertex="1" parent="1E7eBnh2MoHhItpFgBv9-145">
          <mxGeometry y="158" width="390" height="8" as="geometry" />
        </mxCell>
        <mxCell id="1E7eBnh2MoHhItpFgBv9-152" value="+ pagoW (idCliente, monto, numTarjeta, vencimiento, cvv): Response" style="text;strokeColor=none;fillColor=none;align=left;verticalAlign=top;spacingLeft=4;spacingRight=4;overflow=hidden;rotatable=0;points=[[0,0.5],[1,0.5]];portConstraint=eastwest;whiteSpace=wrap;html=1;" vertex="1" parent="1E7eBnh2MoHhItpFgBv9-145">
          <mxGeometry y="166" width="390" height="24" as="geometry" />
        </mxCell>
        <mxCell id="1E7eBnh2MoHhItpFgBv9-153" value="Use" style="endArrow=open;endSize=12;dashed=1;html=1;rounded=0;entryX=1;entryY=0.5;entryDx=0;entryDy=0;exitX=0;exitY=0.5;exitDx=0;exitDy=0;" edge="1" parent="WIyWlLk6GJQsqaUBKTNV-1" source="1E7eBnh2MoHhItpFgBv9-147" target="1E7eBnh2MoHhItpFgBv9-131">
          <mxGeometry width="160" relative="1" as="geometry">
            <mxPoint x="1815" y="1157" as="sourcePoint" />
            <mxPoint x="1700" y="1110" as="targetPoint" />
            <Array as="points" />
          </mxGeometry>
        </mxCell>
        <mxCell id="1E7eBnh2MoHhItpFgBv9-154" value="Extends" style="endArrow=block;endSize=16;endFill=0;html=1;rounded=0;exitX=0.5;exitY=0;exitDx=0;exitDy=0;entryX=0.5;entryY=1;entryDx=0;entryDy=0;" edge="1" parent="WIyWlLk6GJQsqaUBKTNV-1" source="1E7eBnh2MoHhItpFgBv9-145" target="1E7eBnh2MoHhItpFgBv9-136">
          <mxGeometry width="160" relative="1" as="geometry">
            <mxPoint x="2100" y="1000" as="sourcePoint" />
            <mxPoint x="2110" y="870" as="targetPoint" />
          </mxGeometry>
        </mxCell>
        <mxCell id="1E7eBnh2MoHhItpFgBv9-155" style="edgeStyle=none;curved=1;rounded=0;orthogonalLoop=1;jettySize=auto;html=1;exitX=0.75;exitY=0;exitDx=0;exitDy=0;fontSize=12;startSize=8;endSize=8;" edge="1" parent="WIyWlLk6GJQsqaUBKTNV-1">
          <mxGeometry relative="1" as="geometry">
            <mxPoint x="2443.25" y="1059" as="sourcePoint" />
            <mxPoint x="2443.25" y="1059" as="targetPoint" />
          </mxGeometry>
        </mxCell>
        <mxCell id="1E7eBnh2MoHhItpFgBv9-156" value="ICRUDA&amp;lt;R&amp;gt;" style="swimlane;fontStyle=0;childLayout=stackLayout;horizontal=1;startSize=26;fillColor=none;horizontalStack=0;resizeParent=1;resizeParentMax=0;resizeLast=0;collapsible=1;marginBottom=0;whiteSpace=wrap;html=1;" vertex="1" parent="WIyWlLk6GJQsqaUBKTNV-1">
          <mxGeometry x="2090" y="1200" width="120" height="52" as="geometry" />
        </mxCell>
        <mxCell id="1E7eBnh2MoHhItpFgBv9-157" value="+ entity: R" style="text;strokeColor=none;fillColor=none;align=left;verticalAlign=top;spacingLeft=4;spacingRight=4;overflow=hidden;rotatable=0;points=[[0,0.5],[1,0.5]];portConstraint=eastwest;whiteSpace=wrap;html=1;" vertex="1" parent="1E7eBnh2MoHhItpFgBv9-156">
          <mxGeometry y="26" width="120" height="26" as="geometry" />
        </mxCell>
        <mxCell id="1E7eBnh2MoHhItpFgBv9-158" value="" style="endArrow=block;dashed=1;endFill=0;endSize=12;html=1;rounded=0;fontSize=12;curved=1;entryX=0.5;entryY=0;entryDx=0;entryDy=0;" edge="1" parent="WIyWlLk6GJQsqaUBKTNV-1" target="1E7eBnh2MoHhItpFgBv9-156">
          <mxGeometry width="160" relative="1" as="geometry">
            <mxPoint x="2330" y="1080" as="sourcePoint" />
            <mxPoint x="2240" y="1190" as="targetPoint" />
          </mxGeometry>
        </mxCell>
        <mxCell id="1E7eBnh2MoHhItpFgBv9-159" value="" style="endArrow=block;dashed=1;endFill=0;endSize=12;html=1;rounded=0;fontSize=12;curved=1;entryX=0.5;entryY=0;entryDx=0;entryDy=0;exitX=0.486;exitY=1.058;exitDx=0;exitDy=0;exitPerimeter=0;" edge="1" parent="WIyWlLk6GJQsqaUBKTNV-1" source="1E7eBnh2MoHhItpFgBv9-152" target="1E7eBnh2MoHhItpFgBv9-156">
          <mxGeometry width="160" relative="1" as="geometry">
            <mxPoint x="2110" y="1160" as="sourcePoint" />
            <mxPoint x="2112" y="1213" as="targetPoint" />
          </mxGeometry>
        </mxCell>
        <mxCell id="1E7eBnh2MoHhItpFgBv9-161" value="Use" style="endArrow=open;endSize=12;dashed=1;html=1;rounded=0;entryX=1;entryY=0.5;entryDx=0;entryDy=0;exitX=0.5;exitY=0;exitDx=0;exitDy=0;" edge="1" parent="WIyWlLk6GJQsqaUBKTNV-1" source="1E7eBnh2MoHhItpFgBv9-145" target="1E7eBnh2MoHhItpFgBv9-142">
          <mxGeometry width="160" relative="1" as="geometry">
            <mxPoint x="1760" y="1350" as="sourcePoint" />
            <mxPoint x="1640" y="1350" as="targetPoint" />
            <Array as="points" />
          </mxGeometry>
        </mxCell>
        <mxCell id="1E7eBnh2MoHhItpFgBv9-162" value="Use" style="endArrow=open;endSize=12;dashed=1;html=1;rounded=0;entryX=1;entryY=0.5;entryDx=0;entryDy=0;exitX=0.5;exitY=0;exitDx=0;exitDy=0;" edge="1" parent="WIyWlLk6GJQsqaUBKTNV-1" source="1E7eBnh2MoHhItpFgBv9-113" target="1E7eBnh2MoHhItpFgBv9-142">
          <mxGeometry width="160" relative="1" as="geometry">
            <mxPoint x="1898" y="1468" as="sourcePoint" />
            <mxPoint x="1750" y="1380" as="targetPoint" />
            <Array as="points">
              <mxPoint x="2330" y="840" />
            </Array>
          </mxGeometry>
        </mxCell>
      </root>
    </mxGraphModel>
  </diagram>
</mxfile>
